<?xml version="1.0" standalone="no"?>
<!DOCTYPE svg PUBLIC "-//W3C//DTD SVG 20010904//EN"
 "http://www.w3.org/TR/2001/REC-SVG-20010904/DTD/svg10.dtd">
<svg version="1.0" xmlns="http://www.w3.org/2000/svg"
 width="518.000000pt" height="518.000000pt" viewBox="0 0 518.000000 518.000000"
 preserveAspectRatio="xMidYMid meet">
<metadata>
Created by potrace 1.14, written by Peter Selinger 2001-2017
</metadata>
<g transform="translate(0.000000,518.000000) scale(0.100000,-0.100000)"
fill="#000000" stroke="none">
<path d="M2508 5075 c-2 -2 -52 -5 -113 -8 -60 -3 -119 -8 -130 -10 -11 -3
-41 -8 -67 -11 -26 -4 -69 -11 -95 -17 -26 -5 -57 -12 -68 -14 -11 -2 -27 -6
-35 -8 -8 -2 -28 -7 -45 -11 -16 -4 -37 -10 -45 -13 -17 -7 -12 -5 -70 -23
-25 -7 -47 -14 -50 -14 -3 -1 -18 -7 -35 -13 -56 -23 -90 -36 -95 -38 -7 -2
-97 -42 -140 -63 -19 -9 -38 -21 -41 -25 -3 -5 -9 -8 -13 -8 -6 1 -51 -21 -88
-44 -9 -5 -36 -20 -60 -33 -24 -13 -49 -31 -56 -40 -7 -9 -16 -17 -20 -16 -12
2 -82 -48 -82 -58 0 -5 -4 -7 -9 -4 -5 3 -19 -4 -32 -17 -13 -12 -46 -40 -74
-62 -104 -83 -334 -314 -347 -349 -1 -5 -14 -21 -28 -36 -39 -40 -71 -83 -81
-107 -4 -13 -13 -23 -19 -23 -5 0 -10 -7 -10 -15 0 -8 -4 -15 -9 -15 -5 0 -12
-8 -15 -17 -13 -35 -37 -73 -47 -73 -5 0 -9 -9 -9 -20 0 -11 -4 -20 -8 -20 -9
0 -33 -44 -38 -69 -1 -8 -6 -17 -11 -20 -10 -7 -55 -98 -53 -107 1 -4 -2 -10
-7 -13 -11 -8 -49 -93 -45 -103 1 -5 -2 -8 -8 -8 -6 0 -9 -3 -8 -7 0 -5 -1
-15 -5 -23 -3 -8 -20 -58 -37 -110 -18 -52 -35 -102 -38 -110 -3 -8 -7 -22 -8
-30 -2 -8 -8 -33 -14 -55 -29 -111 -47 -215 -36 -215 8 0 8 -2 0 -8 -15 -9
-32 -124 -39 -264 -2 -31 -5 -60 -8 -65 -2 -4 -1 -17 3 -28 4 -11 4 -30 -1
-42 -5 -14 -4 -23 4 -27 9 -3 9 -5 0 -5 -7 -1 -10 -7 -8 -13 2 -7 7 -60 10
-118 3 -58 7 -118 10 -135 2 -16 6 -52 9 -80 3 -27 9 -61 12 -75 3 -14 8 -43
11 -65 2 -22 9 -45 14 -51 5 -6 6 -14 2 -17 -3 -4 -1 -13 5 -20 7 -8 9 -17 6
-20 -4 -3 -3 -14 1 -24 5 -10 9 -25 11 -33 4 -19 61 -198 71 -220 3 -8 7 -21
9 -28 1 -8 9 -28 18 -45 22 -48 59 -131 60 -137 3 -16 92 -180 112 -206 13
-17 20 -34 17 -38 -4 -3 -1 -6 5 -6 7 0 12 -7 12 -15 0 -8 5 -15 10 -15 6 0
10 -6 10 -13 0 -8 9 -22 20 -32 11 -10 18 -21 16 -24 -3 -4 8 -20 22 -37 15
-17 36 -43 47 -59 137 -188 381 -421 592 -563 34 -23 67 -42 72 -42 6 0 11 -4
11 -10 0 -5 4 -10 10 -10 5 0 33 -15 62 -34 29 -18 64 -37 78 -41 14 -4 33
-14 43 -23 9 -8 17 -11 17 -6 0 5 4 4 8 -2 6 -9 95 -54 107 -54 3 0 24 -9 48
-19 79 -37 296 -103 309 -95 4 3 8 1 8 -4 0 -5 6 -9 13 -9 6 0 46 -8 87 -17
41 -8 98 -18 125 -21 28 -4 64 -8 80 -11 17 -2 64 -5 106 -7 42 -3 80 -6 85
-8 5 -3 29 -4 54 -2 25 1 98 4 162 6 64 3 126 8 138 12 11 4 39 8 63 10 93 7
391 78 416 98 8 7 15 10 15 8 1 -5 74 18 91 28 6 3 15 6 20 7 6 1 33 13 60 25
28 13 52 23 55 24 12 1 186 91 198 102 6 6 21 15 32 18 11 3 20 10 20 14 0 5
15 15 33 22 17 7 41 21 51 31 11 10 26 18 33 18 7 0 13 4 13 8 0 5 23 24 52
42 29 19 59 41 68 50 9 8 38 33 65 55 26 22 63 54 82 72 18 18 38 33 43 33 6
0 10 4 10 9 0 6 30 41 68 79 37 37 78 83 92 101 14 18 32 41 41 51 8 10 24 31
35 45 10 15 24 32 29 39 20 23 113 162 130 196 10 19 21 37 25 40 7 5 118 230
143 292 8 20 13 39 9 42 -3 3 0 6 6 6 7 0 12 6 12 14 0 8 4 25 9 38 5 13 10
28 11 33 1 6 5 15 9 20 7 9 24 66 22 73 -1 1 5 17 12 35 8 17 17 48 20 67 8
42 11 55 32 140 9 36 18 85 20 110 3 25 7 56 10 70 11 45 18 202 17 345 -1 77
-1 149 -1 160 0 11 0 25 0 30 0 15 -10 100 -11 100 -1 0 -3 14 -5 30 -5 57
-17 130 -32 195 -8 36 -16 77 -18 91 -1 14 -8 36 -14 48 -7 11 -9 21 -7 21 3
0 1 12 -5 28 -6 15 -13 36 -15 47 -7 27 -10 36 -18 60 -5 11 -12 34 -18 50
-11 32 -22 61 -38 98 -5 12 -11 29 -12 37 -2 8 -5 17 -8 20 -3 3 -16 30 -30
60 -14 30 -27 57 -30 60 -4 3 -12 21 -20 40 -8 19 -17 37 -20 40 -3 3 -14 21
-23 40 -24 47 -97 163 -122 192 -11 13 -26 35 -33 49 -7 14 -29 42 -48 63 -19
20 -34 40 -34 42 0 6 -37 48 -111 125 -26 27 -44 51 -41 54 3 3 1 5 -4 5 -5 0
-39 28 -74 63 -36 34 -87 80 -115 102 -27 22 -57 47 -65 55 -8 8 -27 21 -42
29 -16 8 -28 18 -28 23 0 4 -6 8 -13 8 -8 0 -24 11 -37 25 -13 14 -27 25 -31
25 -4 0 -31 16 -60 35 -30 19 -59 35 -66 35 -7 0 -13 4 -13 8 0 5 -16 14 -35
22 -19 8 -35 17 -35 22 0 4 -6 8 -13 8 -18 0 -67 24 -67 33 0 4 -8 7 -18 7
-10 0 -26 6 -37 13 -11 7 -36 19 -55 27 -19 7 -48 19 -65 25 -71 30 -115 44
-115 39 0 -4 -6 -2 -12 3 -7 6 -35 16 -63 23 -27 7 -54 16 -60 19 -5 3 -19 6
-30 7 -29 2 -73 12 -83 18 -4 2 -26 7 -47 10 -40 5 -71 10 -135 21 -56 10
-375 26 -382 20z"/>
</g>
</svg>
